<svg xmlns="http://www.w3.org/2000/svg" width="20.047" height="20" viewBox="0 0 20.047 20">
    <path data-name="패스 20562" d="m17.2 5.3-9.338 9.344a10.381 10.381 0 0 0 1.626.129 10.129 10.129 0 0 0 9.489-6.5A9.97 9.97 0 0 0 17.2 5.3" transform="translate(.535 1.515)" style="fill:#d9d9d9;stroke:transparent;stroke-miterlimit:10"/>
    <path data-name="패스 20563" d="m12.329 7.35 3.425-3.425 2.51-2.51L16.85 0l-2.829 2.83A10.2 10.2 0 0 0 0 8.274a10.074 10.074 0 0 0 3.806 4.771l-2.512 2.512 1.414 1.414 2.941-2.941 2.916-2.916zm-5.84.924A2.991 2.991 0 0 1 11.1 5.751L6.966 9.885a2.973 2.973 0 0 1-.477-1.611" transform="translate(.535 1.515)" style="fill:#d9d9d9;stroke:transparent;stroke-miterlimit:10"/>
</svg>
