<svg xmlns="http://www.w3.org/2000/svg" width="16" height="16" viewBox="0 0 16 16">
    <path d="M16.664 8.224h-.024a.966.966 0 0 1-.888-.6.008.008 0 0 0-.008-.008.975.975 0 0 1 .208-1.048l.024-.024a1.337 1.337 0 0 0 0-1.888l-.632-.624a1.337 1.337 0 0 0-1.888 0l-.008.016a.986.986 0 0 1-1.064.2.953.953 0 0 1-.608-.888v-.024A1.332 1.332 0 0 0 10.448 2h-.9a1.332 1.332 0 0 0-1.324 1.336v.024a.958.958 0 0 1-.6.888.919.919 0 0 1-.384.08.963.963 0 0 1-.68-.28l-.016-.016a1.337 1.337 0 0 0-1.888 0l-.632.624a1.337 1.337 0 0 0 0 1.888l.024.024a.974.974 0 0 1-.688 1.656h-.024A1.338 1.338 0 0 0 2 9.56v.888a1.338 1.338 0 0 0 1.336 1.336h.024a.946.946 0 0 1 .888.6 1 1 0 0 1-.2 1.064l-.016.008a1.347 1.347 0 0 0 0 1.9l.624.624a1.337 1.337 0 0 0 1.888 0l.016-.016a.949.949 0 0 1 1.048-.208.971.971 0 0 1 .616.9v.024A1.325 1.325 0 0 0 9.552 18h.9a1.325 1.325 0 0 0 1.328-1.328v-.024a.971.971 0 0 1 .616-.9.949.949 0 0 1 1.048.208l.016.016a1.337 1.337 0 0 0 1.888 0l.624-.624a1.347 1.347 0 0 0 0-1.9l-.016-.008a1 1 0 0 1-.2-1.064.946.946 0 0 1 .888-.6h.024A1.338 1.338 0 0 0 18 10.448V9.56a1.338 1.338 0 0 0-1.336-1.336zM10 12.8a2.8 2.8 0 1 1 2.8-2.8 2.8 2.8 0 0 1-2.8 2.8z" transform="translate(-2 -2)" style="fill:#d9d9d9"/>
</svg>
