<svg data-name="icon_?" xmlns="http://www.w3.org/2000/svg" width="20.002" height="20.002" viewBox="0 0 20.002 20.002">
    <path data-name="제외 24" d="M20739 16298a10 10 0 1 1 10-10 10.013 10.013 0 0 1-10 10zm0-6.666a.836.836 0 0 0 0 1.672h.01a.836.836 0 0 0 0-1.672zm-.07-6.669a1.568 1.568 0 0 1 .283.024 1.692 1.692 0 0 1 .994.567 1.665 1.665 0 0 1 .391 1.078c0 .511-.23.7-.891 1.109a2.581 2.581 0 0 0-1.541 2.224.833.833 0 1 0 1.666 0c0-.3.152-.437.756-.808l.01-.006a2.844 2.844 0 0 0 1.668-2.52 3.332 3.332 0 0 0-2.771-3.291 3.452 3.452 0 0 0-.557-.046 3.392 3.392 0 0 0-1.7.457 3.346 3.346 0 0 0-1.453 1.771.838.838 0 0 0 .037.641.831.831 0 0 0 .746.469.832.832 0 0 0 .789-.557 1.66 1.66 0 0 1 1.57-1.113z" transform="translate(-20729 -16278.001)" style="fill:#000000"/>
</svg>
