<svg width="256" height="256" viewBox="0 0 256 256" fill="none" xmlns="http://www.w3.org/2000/svg">
<path d="M65.0163 58.7857C60.8841 60.7076 58.8181 62.3093 53.8913 68.7159C48.9645 75.1224 48.9645 78.1656 48.9645 78.1656V96.4243L48.4877 112.441L43.0841 118.367C34.9787 127.496 32.118 139.188 33.2305 159.049C35.4555 199.09 57.8645 228.08 94.2592 237.529C104.907 240.412 146.706 240.893 160.056 238.33C187.868 233.045 212.502 209.821 220.926 180.831C223.151 173.463 223.469 161.611 223.469 104.112V36.0423L219.495 29.1552C209.483 11.8574 184.372 11.5371 173.088 28.6747C168.956 34.9211 168.638 36.8431 168.161 54.1409L167.526 72.72H158.626C153.54 72.5598 148.136 73.0403 146.388 73.681C143.845 74.642 142.415 73.5208 139.236 68.5557C133.674 59.4263 123.78 54.9017 112.496 56.3432C112.496 56.3432 110.203 56.1994 107.728 57.5444C106.251 58.3472 104.874 59.4027 103.676 60.5879C102.646 61.607 101.69 62.9904 101.292 64.1916C100.895 65.3928 100.299 68.2643 100.299 68.2643C93.5444 55.783 78.5253 52.6994 65.0163 58.7857ZM84.2467 75.1224L88.3789 78.3257V93.5414V103.792H76.4592H64.5395V95.7837C64.5395 82.2101 65.0163 82.0095 66.9234 78.1656C70.897 72.72 79.8368 71.9996 84.2467 75.1224ZM203.444 35.0813L207.735 38.4448L207.258 107.636L206.781 176.667L201.536 187.398C195.02 200.852 181.193 214.145 168.32 219.431C159.738 222.794 156.877 223.114 128.111 223.114H97.12L86.4717 217.989C60.4073 205.657 47.2162 180.831 48.9645 148.157C49.7591 134.864 51.8252 130.379 60.4074 123.973C64.3806 120.93 67.4002 120.609 92.1932 120.129C118.099 119.648 119.688 119.808 123.82 123.012C129.7 127.656 129.7 135.825 123.979 140.47C120.324 143.353 117.463 143.833 102.524 143.833C85.836 143.833 85.2003 143.993 82.6574 147.837C80.2735 151.521 80.2735 152.162 82.6574 155.845C85.2003 159.689 85.836 159.849 104.113 159.849C120.483 159.849 123.661 159.369 129.7 156.166L136.534 152.482L143.686 156.166C147.659 158.248 153.381 159.849 156.559 159.849C165.301 159.849 175.313 154.084 179.763 146.396L183.736 139.509V91.1389C183.736 51.5782 184.213 41.9684 186.12 38.1244C189.776 30.917 196.61 29.6357 203.444 35.0813ZM123.979 75.1224C127.793 78.1656 128.111 79.2867 128.111 92.0999C128.111 105.554 128.111 105.714 124.615 104.753C122.549 104.272 117.145 103.792 112.695 103.792H104.272V93.3812C104.272 82.8103 106.974 74.4818 110.947 72.8801C115.238 71.1183 119.847 71.9192 123.979 75.1224ZM163.711 91.1389C167.843 94.3422 167.843 94.6625 167.843 115.804C167.843 136.946 167.843 137.266 163.711 140.47C156.877 145.915 150.043 144.634 146.388 137.266C143.05 131.02 143.05 100.589 146.388 94.182C150.043 86.9746 156.877 85.6933 163.711 91.1389Z" fill="white"/>
</svg>
