<svg xmlns="http://www.w3.org/2000/svg" width="20" height="20" viewBox="0 0 20 20">
    <path data-name="패스 20879" d="m11 .72 2.039 4.131a1.293 1.293 0 0 0 .973.707l4.559.663a1.293 1.293 0 0 1 .716 2.206l-3.3 3.216a1.293 1.293 0 0 0-.373 1.144l.779 4.539a1.293 1.293 0 0 1-1.876 1.364l-4.077-2.144a1.3 1.3 0 0 0-1.2 0L5.16 18.69a1.293 1.293 0 0 1-1.876-1.364l.779-4.539a1.292 1.292 0 0 0-.372-1.144L.392 8.427a1.293 1.293 0 0 1 .716-2.206l4.559-.663a1.293 1.293 0 0 0 .974-.707L8.679.72A1.293 1.293 0 0 1 11 .72" transform="translate(.162 .58)" style="fill:#fa0"/>
</svg>
