<svg width="533" height="91" viewBox="0 0 533 91" fill="none" xmlns="http://www.w3.org/2000/svg">
<g clip-path="url(#clip0_588_44)">
<rect width="533" height="91" fill="white"/>
<path d="M469.493 16.9997C467.851 17.7633 467.03 18.3997 465.073 20.9451C463.115 23.4906 463.115 24.6997 463.115 24.6997V31.9543L462.926 38.318L460.779 40.6726C457.558 44.2998 456.422 48.9453 456.864 56.8363C457.748 72.7455 466.651 84.2638 481.112 88.0183C485.342 89.1638 501.95 89.3547 507.254 88.3365C518.305 86.2365 528.092 77.0092 531.439 65.4909C532.323 62.5636 532.449 57.8545 532.449 35.0089V7.96323L530.871 5.22684C526.892 -1.64593 516.915 -1.7732 512.432 5.03594C510.79 7.51777 510.664 8.28141 510.474 15.1542L510.222 22.5361H506.686C504.665 22.4724 502.518 22.6633 501.823 22.9179C500.813 23.2997 500.245 22.8542 498.982 20.8815C496.772 17.2542 492.841 15.4565 488.358 16.0292C488.358 16.0292 487.447 15.9721 486.463 16.5065C485.876 16.8255 485.329 17.2448 484.853 17.7157C484.444 18.1206 484.064 18.6703 483.906 19.1476C483.748 19.6248 483.511 20.7657 483.511 20.7657C480.828 15.8066 474.86 14.5815 469.493 16.9997ZM477.133 23.4906L478.775 24.7633V30.8088V34.8816H474.039H469.303V31.6998C469.303 26.3067 469.493 26.227 470.25 24.6997C471.829 22.5361 475.381 22.2498 477.133 23.4906ZM524.493 7.58141L526.198 8.91778L526.008 36.4089L525.819 63.8363L523.735 68.1C521.146 73.4455 515.652 78.7274 510.538 80.8274C507.128 82.1638 505.991 82.291 494.562 82.291H482.248L478.017 80.2546C467.661 75.3546 462.42 65.4909 463.115 52.509C463.431 47.2271 464.252 45.4453 467.662 42.8998C469.24 41.6907 470.44 41.5635 480.291 41.3726C490.583 41.1816 491.215 41.2453 492.857 42.518C495.193 44.3635 495.193 47.609 492.92 49.4544C491.468 50.5999 490.331 50.7908 484.395 50.7908C477.765 50.7908 477.512 50.8544 476.502 52.3817C475.555 53.8454 475.555 54.0999 476.502 55.5636C477.512 57.0908 477.765 57.1545 485.027 57.1545C491.531 57.1545 492.794 56.9636 495.193 55.6908L497.908 54.2272L500.75 55.6908C502.329 56.5181 504.602 57.1545 505.865 57.1545C509.338 57.1545 513.316 54.8636 515.084 51.809L516.663 49.0726V29.8543C516.663 14.136 516.852 10.3178 517.61 8.79051C519.062 5.92685 521.778 5.41775 524.493 7.58141ZM492.92 23.4906C494.435 24.6997 494.562 25.1452 494.562 30.2361C494.562 35.5816 494.562 35.6452 493.172 35.2634C492.352 35.0725 490.205 34.8816 488.437 34.8816H485.09V30.7452C485.09 26.5452 486.163 23.2361 487.742 22.5997C489.447 21.8997 491.278 22.2179 492.92 23.4906ZM508.706 29.8543C510.348 31.127 510.348 31.2543 510.348 39.6544C510.348 48.0544 510.348 48.1817 508.706 49.4544C505.991 51.6181 503.276 51.109 501.823 48.1817C500.497 45.6999 500.497 33.6089 501.823 31.0634C503.276 28.1997 505.991 27.6906 508.706 29.8543Z" fill="#687FE5"/>
<rect x="306" y="40" width="37" height="13" fill="#687FE5"/>
<path d="M423.365 89L401.605 50.984C400.155 52.6053 398.661 54.2266 397.125 55.848C395.675 57.4693 394.139 59.1333 392.517 60.84V89H377.157V1.95996H392.517V43.304C399.003 35.88 404.549 28.84 409.157 22.184C413.765 15.4426 417.733 8.70129 421.061 1.95996H437.829C434.16 9.29862 430.235 16.2533 426.053 22.824C421.957 29.3093 417.605 35.3253 412.997 40.872L441.925 89H423.365Z" fill="#687FE5"/>
<path d="M356.85 36.2642V54.5682C356.85 65.6615 354.076 74.4082 348.53 80.8082C342.983 87.1228 334.876 90.2802 324.21 90.2802C313.458 90.2802 305.308 87.1228 299.762 80.8082C294.3 74.4082 291.57 65.6615 291.57 54.5682V36.2642C291.57 25.1708 294.3 16.4668 299.762 10.1522C305.308 3.83751 313.458 0.680176 324.21 0.680176C334.876 0.680176 342.983 3.83751 348.53 10.1522C354.076 16.4668 356.85 25.1708 356.85 36.2642ZM341.106 36.2642C341.106 29.2668 339.74 24.0188 337.01 20.5202C334.279 16.9362 330.012 15.1442 324.21 15.1442C318.407 15.1442 314.14 16.9362 311.41 20.5202C308.679 24.0188 307.314 29.2668 307.314 36.2642V54.5682C307.314 61.5655 308.679 66.8562 311.41 70.4402C314.14 74.0242 318.407 75.8162 324.21 75.8162C330.012 75.8162 334.279 74.0242 337.01 70.4402C339.74 66.8562 341.106 61.5655 341.106 54.5682V36.2642Z" fill="#687FE5"/>
<path d="M247.976 76.0722C257.875 76.0722 262.824 72.4028 262.824 65.0642C262.824 62.0775 262.056 59.7309 260.52 58.0242C259.07 56.3175 256.339 54.8242 252.328 53.5442L241.832 50.0882C229.288 45.9922 223.016 37.7575 223.016 25.3842C223.016 18.2162 225.235 12.3282 229.672 7.72018C234.195 3.02684 241.235 0.680176 250.792 0.680176C254.803 0.680176 258.771 1.14951 262.696 2.08818C266.622 2.94151 270.803 4.34951 275.24 6.31218L270.504 19.4962C266.408 17.8748 262.91 16.7228 260.008 16.0402C257.192 15.2722 254.291 14.8882 251.304 14.8882C247.379 14.8882 244.264 15.6135 241.96 17.0642C239.742 18.4295 238.632 20.9468 238.632 24.6162C238.632 27.3468 239.4 29.6082 240.936 31.4002C242.558 33.1068 245.203 34.5575 248.872 35.7522L259.368 39.2082C265.683 41.3415 270.419 44.4562 273.576 48.5522C276.819 52.5629 278.44 57.8962 278.44 64.5522C278.44 72.2322 276.008 78.4615 271.144 83.2402C266.28 87.9335 258.643 90.2802 248.232 90.2802C244.136 90.2802 239.87 89.8109 235.432 88.8722C231.08 87.8482 226.302 86.1415 221.096 83.7522L225.832 70.5682C230.611 72.6162 234.664 74.0668 237.992 74.9202C241.406 75.6882 244.734 76.0722 247.976 76.0722Z" fill="#687FE5"/>
<path d="M196.365 89L174.605 50.984C173.155 52.6053 171.661 54.2266 170.125 55.848C168.675 57.4693 167.139 59.1333 165.517 60.84V89H150.157V1.95996H165.517V43.304C172.003 35.88 177.549 28.84 182.157 22.184C186.765 15.4426 190.733 8.70129 194.061 1.95996H210.829C207.16 9.29862 203.235 16.2533 199.053 22.824C194.957 29.3093 190.605 35.3253 185.997 40.872L214.925 89H196.365Z" fill="#687FE5"/>
<path d="M119.618 89L114.242 71.976H84.4181L79.0421 89H63.8101L92.8661 1.95996H106.434L135.618 89H119.618ZM92.7381 45.352L88.7701 57.896H109.762L105.794 45.352L99.3941 23.336L92.7381 45.352Z" fill="#687FE5"/>
<path d="M69.2478 1.95996L42.6238 54.056V89H27.2638V54.312L0.383789 1.95996H16.7678L35.5838 39.08L53.3758 1.95996H69.2478Z" fill="#687FE5"/>
</g>
<defs>
<clipPath id="clip0_588_44">
<rect width="533" height="91" fill="white"/>
</clipPath>
</defs>
</svg>
