<svg width="20" height="20" viewBox="0 0 20 20" fill="none" xmlns="http://www.w3.org/2000/svg">
<g clip-path="url(#clip0_654_32)">
<path d="M15.3042 13.5363L18.2179 10.625L18.2117 10.6187C19.3154 9.49219 20.0001 7.95156 20.0001 6.25C20.0001 2.79781 17.2023 0 13.7501 0C12.0473 0 10.5079 0.684687 9.38137 1.78844L9.37512 1.78219L6.46387 4.69594L15.3042 13.5363Z" fill="black"/>
<path d="M4.69594 6.46387L1.83719 9.32512C0.703125 10.4567 0 12.0204 0 13.7501C0 17.2023 2.79781 20.0001 6.25 20.0001C7.97969 20.0001 9.54344 19.297 10.675 18.1629L13.5363 15.3042L4.69594 6.46387Z" fill="black"/>
</g>
<defs>
<clipPath id="clip0_654_32">
<rect width="20" height="20" fill="white"/>
</clipPath>
</defs>
</svg>
