<svg width="20" height="20" viewBox="0 0 20 20" fill="none" xmlns="http://www.w3.org/2000/svg">
<path d="M13.5361 15.3037L10.6748 18.1631C9.54326 19.2971 7.97959 20 6.25 20C2.79781 20 0 17.2022 0 13.75C2.63599e-05 12.0204 0.702974 10.4567 1.83691 9.3252L4.69629 6.46387L13.5361 15.3037ZM13.75 0C17.2022 0 20 2.79781 20 6.25C20 7.95156 19.3156 9.49263 18.2119 10.6191L18.2178 10.625L15.3037 13.5361L6.46387 4.69629L9.375 1.78223L9.38184 1.78809C10.5083 0.684593 12.0474 2.6072e-05 13.75 0Z" fill="black"/>
</svg>
