<svg width="96" height="96" viewBox="0 0 96 96" fill="none" xmlns="http://www.w3.org/2000/svg">
<rect width="96" height="96" fill="white"/>
<path d="M23.5778 20.8086C21.9545 21.5637 21.1428 22.1929 19.2073 24.7098C17.2718 27.2267 17.2718 28.4222 17.2718 28.4222V35.5953L17.0844 41.8874L14.9616 44.2156C11.7773 47.8021 10.6535 52.3954 11.0905 60.1977C11.9647 75.9281 20.7682 87.317 35.0661 91.0294C39.2494 92.162 55.6702 92.3507 60.9148 91.344C71.8412 89.2676 81.5188 80.1439 84.828 68.7551C85.7021 65.8606 85.8269 61.2044 85.8269 38.6155V11.8737L84.266 9.16811C80.3325 2.37255 70.4676 2.24671 66.0346 8.97934C64.4113 11.4333 64.2864 12.1884 64.0991 18.9839L63.8493 26.2828H60.3529C58.3549 26.2199 56.2321 26.4087 55.5453 26.6604C54.5463 27.0379 53.9844 26.5974 52.7356 24.6469C50.5504 21.0603 46.6637 19.2828 42.2307 19.8491C42.2307 19.8491 41.3299 19.7926 40.3576 20.321C39.7772 20.6364 39.2361 21.0511 38.7656 21.5167C38.3611 21.917 37.9853 22.4605 37.8291 22.9324C37.6729 23.4043 37.4387 24.5324 37.4387 24.5324C34.7853 19.629 28.8849 18.4176 23.5778 20.8086ZM31.1326 27.2267L32.756 28.4851V34.4627V38.4897H28.0733H23.3905V35.3436C23.3905 30.0111 23.5778 29.9323 24.3271 28.4222C25.8881 26.2828 29.4002 25.9998 31.1326 27.2267ZM77.96 11.4962L79.6457 12.8176L79.4584 39.9998L79.2711 67.1191L77.2107 71.3348C74.6508 76.6203 69.2189 81.8428 64.1615 83.9192C60.7899 85.2406 59.6661 85.3664 48.3651 85.3664H36.19L32.0067 83.3529C21.7672 78.5079 16.585 68.7551 17.2718 55.919C17.5839 50.6965 18.3956 48.9347 21.7672 46.4178C23.3281 45.2223 24.5144 45.0965 34.2545 44.9077C44.4316 44.7189 45.056 44.7818 46.6793 46.0403C48.9895 47.865 48.9895 51.074 46.7417 52.8988C45.3057 54.0314 44.1818 54.2201 38.3128 54.2201C31.757 54.2201 31.5073 54.283 30.5083 55.7932C29.5717 57.2404 29.5717 57.4921 30.5083 58.9393C31.5073 60.4494 31.757 60.5123 38.9372 60.5123C45.3681 60.5123 46.6169 60.3235 48.9895 59.0651L51.6742 57.6179L54.4839 59.0651C56.0448 59.8831 58.2925 60.5123 59.5412 60.5123C62.9752 60.5123 66.9087 58.2471 68.6569 55.2269L70.2178 52.5212V33.5188C70.2178 17.9772 70.4052 14.2019 71.1544 12.6917C72.5904 9.86025 75.2752 9.35687 77.96 11.4962ZM46.7417 27.2267C48.2402 28.4222 48.3651 28.8626 48.3651 33.8964C48.3651 39.1818 48.3651 39.2447 46.9915 38.8672C46.1798 38.6784 44.057 38.4897 42.3088 38.4897H38.9996V34.3997C38.9996 30.2469 40.061 26.975 41.622 26.3458C43.3077 25.6536 45.1184 25.9682 46.7417 27.2267ZM62.3508 33.5188C63.9742 34.7773 63.9742 34.9031 63.9742 43.2088C63.9742 51.5145 63.9742 51.6403 62.3508 52.8988C59.6661 55.0381 56.9813 54.5347 55.5453 51.6403C54.2341 49.1864 54.2341 37.2312 55.5453 34.7144C56.9813 31.8829 59.6661 31.3795 62.3508 33.5188Z" fill="#687FE5"/>
</svg>
