<svg width="536" height="92" viewBox="0 0 536 92" fill="none" xmlns="http://www.w3.org/2000/svg">
<rect width="536" height="92" fill="white"/>
<path d="M471.751 18.1865C470.1 18.9585 469.275 19.6019 467.306 22.1753C465.338 24.7488 465.338 25.9711 465.338 25.9711V33.3055L465.147 39.7391L462.988 42.1195C459.75 45.7867 458.607 50.4832 459.051 58.4609C459.94 74.5449 468.894 86.1897 483.436 89.9856C487.69 91.1436 504.391 91.3366 509.725 90.3073C520.838 88.1842 530.681 78.8554 534.046 67.2106C534.935 64.2511 535.062 59.4903 535.062 36.3936V9.05074L533.475 6.28429C529.474 -0.664013 519.441 -0.792683 514.932 6.09128C513.281 8.60039 513.154 9.37242 512.964 16.3207L512.71 23.7837H509.154C507.122 23.7194 504.963 23.9124 504.264 24.1697C503.248 24.5558 502.676 24.1054 501.406 22.111C499.184 18.4438 495.231 16.6263 490.722 17.2053C490.722 17.2053 489.806 17.1476 488.817 17.6879C488.227 18.0104 487.677 18.4343 487.198 18.9104C486.787 19.3198 486.405 19.8754 486.246 20.358C486.087 20.8405 485.849 21.9939 485.849 21.9939C483.15 16.9803 477.149 15.7417 471.751 18.1865ZM479.435 24.7488L481.086 26.0355V32.1474V36.2649H476.323H471.561V33.0481C471.561 27.5958 471.751 27.5152 472.513 25.9711C474.101 23.7837 477.673 23.4944 479.435 24.7488ZM527.061 8.66472L528.776 10.0158L528.585 37.809L528.395 65.5379L526.299 69.8484C523.695 75.2526 518.171 80.5925 513.027 82.7156C509.598 84.0667 508.455 84.1953 496.961 84.1953H484.579L480.324 82.1366C469.91 77.1827 464.639 67.2106 465.338 54.086C465.655 48.7461 466.481 46.9447 469.91 44.3713C471.497 43.1489 472.704 43.0202 482.61 42.8272C492.961 42.6342 493.596 42.6985 495.247 43.9853C497.596 45.851 497.596 49.1321 495.31 50.9979C493.85 52.1559 492.707 52.349 486.738 52.349C480.07 52.349 479.816 52.4133 478.8 53.9574C477.847 55.4371 477.847 55.6944 478.8 57.1742C479.816 58.7182 480.07 58.7826 487.373 58.7826C493.913 58.7826 495.183 58.5896 497.596 57.3028L500.327 55.8231L503.185 57.3028C504.772 58.1392 507.058 58.7826 508.328 58.7826C511.821 58.7826 515.821 56.4665 517.599 53.3783L519.187 50.6119V31.1824C519.187 15.2913 519.377 11.4312 520.139 9.88711C521.6 6.99199 524.33 6.4773 527.061 8.66472ZM495.31 24.7488C496.834 25.9711 496.961 26.4215 496.961 31.5684C496.961 36.9726 496.961 37.037 495.564 36.6509C494.739 36.4579 492.58 36.2649 490.802 36.2649H487.436V32.0831C487.436 27.8369 488.516 24.4914 490.103 23.8481C491.818 23.1404 493.659 23.462 495.31 24.7488ZM511.186 31.1824C512.837 32.4691 512.837 32.5978 512.837 41.0901C512.837 49.5825 512.837 49.7112 511.186 50.9979C508.455 53.1853 505.725 52.6706 504.264 49.7112C502.931 47.2021 502.931 34.9782 504.264 32.4048C505.725 29.5096 508.455 28.9949 511.186 31.1824Z" fill="#687FE5"/>
<rect x="305.616" y="41" width="37" height="13" fill="#687FE5"/>
<path d="M422.981 90L401.221 51.984C399.771 53.6053 398.277 55.2266 396.741 56.848C395.291 58.4693 393.755 60.1333 392.133 61.84V90H376.773V2.95996H392.133V44.304C398.619 36.88 404.165 29.84 408.773 23.184C413.381 16.4426 417.349 9.70129 420.677 2.95996H437.445C433.776 10.2986 429.851 17.2533 425.669 23.824C421.573 30.3093 417.221 36.3253 412.613 41.872L441.541 90H422.981Z" fill="#687FE5"/>
<path d="M356.466 37.2642V55.5682C356.466 66.6615 353.693 75.4082 348.146 81.8082C342.599 88.1228 334.493 91.2802 323.826 91.2802C313.074 91.2802 304.925 88.1228 299.378 81.8082C293.917 75.4082 291.186 66.6615 291.186 55.5682V37.2642C291.186 26.1708 293.917 17.4668 299.378 11.1522C304.925 4.83751 313.074 1.68018 323.826 1.68018C334.493 1.68018 342.599 4.83751 348.146 11.1522C353.693 17.4668 356.466 26.1708 356.466 37.2642ZM340.722 37.2642C340.722 30.2668 339.357 25.0188 336.626 21.5202C333.895 17.9362 329.629 16.1442 323.826 16.1442C318.023 16.1442 313.757 17.9362 311.026 21.5202C308.295 25.0188 306.93 30.2668 306.93 37.2642V55.5682C306.93 62.5655 308.295 67.8562 311.026 71.4402C313.757 75.0242 318.023 76.8162 323.826 76.8162C329.629 76.8162 333.895 75.0242 336.626 71.4402C339.357 67.8562 340.722 62.5655 340.722 55.5682V37.2642Z" fill="#687FE5"/>
<path d="M247.592 77.0722C257.491 77.0722 262.44 73.4028 262.44 66.0642C262.44 63.0775 261.672 60.7309 260.136 59.0242C258.686 57.3175 255.955 55.8242 251.944 54.5442L241.448 51.0882C228.904 46.9922 222.632 38.7575 222.632 26.3842C222.632 19.2162 224.851 13.3282 229.288 8.72018C233.811 4.02684 240.851 1.68018 250.408 1.68018C254.419 1.68018 258.387 2.14951 262.312 3.08818C266.238 3.94151 270.419 5.34951 274.856 7.31218L270.12 20.4962C266.024 18.8748 262.526 17.7228 259.624 17.0402C256.808 16.2722 253.907 15.8882 250.92 15.8882C246.995 15.8882 243.88 16.6135 241.576 18.0642C239.358 19.4295 238.248 21.9468 238.248 25.6162C238.248 28.3468 239.016 30.6082 240.552 32.4002C242.174 34.1068 244.819 35.5575 248.488 36.7522L258.984 40.2082C265.299 42.3415 270.035 45.4562 273.192 49.5522C276.435 53.5629 278.056 58.8962 278.056 65.5522C278.056 73.2322 275.624 79.4615 270.76 84.2402C265.896 88.9335 258.259 91.2802 247.848 91.2802C243.752 91.2802 239.486 90.8109 235.048 89.8722C230.696 88.8482 225.918 87.1415 220.712 84.7522L225.448 71.5682C230.227 73.6162 234.28 75.0668 237.608 75.9202C241.022 76.6882 244.35 77.0722 247.592 77.0722Z" fill="#687FE5"/>
<path d="M195.981 90L174.221 51.984C172.771 53.6053 171.277 55.2266 169.741 56.848C168.291 58.4693 166.755 60.1333 165.133 61.84V90H149.773V2.95996H165.133V44.304C171.619 36.88 177.165 29.84 181.773 23.184C186.381 16.4426 190.349 9.70129 193.677 2.95996H210.445C206.776 10.2986 202.851 17.2533 198.669 23.824C194.573 30.3093 190.221 36.3253 185.613 41.872L214.541 90H195.981Z" fill="#687FE5"/>
<path d="M119.234 90L113.858 72.976H84.0343L78.6583 90H63.4263L92.4823 2.95996H106.05L135.234 90H119.234ZM92.3543 46.352L88.3863 58.896H109.378L105.41 46.352L99.0103 24.336L92.3543 46.352Z" fill="#687FE5"/>
<path d="M68.864 2.95996L42.24 55.056V90H26.88V55.312L0 2.95996H16.384L35.2 40.08L52.992 2.95996H68.864Z" fill="#687FE5"/>
</svg>
