<svg width="571" height="705" viewBox="0 0 571 705" fill="none" xmlns="http://www.w3.org/2000/svg">
<g clip-path="url(#clip0_642_13)">
<mask id="mask0_642_13" style="mask-type:luminance" maskUnits="userSpaceOnUse" x="0" y="0" width="571" height="705">
<path d="M571 0H0V704.534H571V0Z" fill="white"/>
</mask>
<g mask="url(#mask0_642_13)">
<path d="M40.6994 498.031V571.779H515.235V498.031C515.235 498.031 582.353 432.779 569.322 373.131C556.256 313.483 486.353 341.433 486.353 341.433C486.353 341.433 504.739 121.223 355.831 84.7778C197.283 45.9761 121.812 101.876 96.6427 213.712C71.4735 325.584 95.7144 341.397 95.7144 341.397C95.7144 341.397 38.8429 318.087 12.7454 350.714C-12.2809 381.983 0.857008 420.642 40.6994 497.996V498.031Z" fill="#FCD8CD"/>
<path d="M308.313 15.1354L317.131 22.346L326.378 36.6957L329.591 43.2638L338.552 47.5473L341.693 49.9389L338.552 56.5427L337.231 77.2464L332.304 87.0986L319.737 93.6666L310.384 93.6309L308.313 105.839L306.635 116.369L310.384 120.653H337.231L338.552 125.9H241.517L253.691 89.4188L256.297 34.3399L285.607 11.3159L308.313 15.1354Z" fill="white"/>
<path d="M295.639 91.0609C298.352 92.4887 302.422 92.5601 305.421 93.0599C306.456 93.2384 307.492 93.3811 308.527 93.5239C309.669 93.6667 310.776 93.8095 311.918 93.9166C313.097 94.0237 314.453 94.0951 315.667 94.0951C321.379 94.0951 324.521 93.4168 329.341 90.1328C338.48 83.886 337.98 73.8197 338.087 64.0033C338.087 61.3975 337.088 58.863 338.551 56.5071C339.587 54.9008 340.515 53.2587 341.05 51.3669C341.657 49.2251 340.908 47.5831 339.194 46.1195C337.695 44.8345 336.445 45.5127 334.589 45.0486C330.269 44.0135 327.52 40.0869 325.699 36.1603C323.807 32.0552 322.307 27.8787 319.701 24.1663C317.024 20.3469 313.882 17.2413 309.812 14.8854C306.135 12.7436 302.708 10.816 298.388 11.4585C297.317 11.637 297.46 12.9578 298.281 13.3504C300.494 14.3856 302.85 15.0281 305.064 16.1704C307.063 17.2056 309.027 18.2765 310.883 19.5615C314.703 22.2387 317.952 25.8084 320.094 29.9491C323.414 36.2674 324.985 45.013 332.625 47.6188C334.303 48.1899 336.445 48.2256 337.98 49.1537C339.551 50.1175 338.551 51.4739 337.73 52.6519C336.445 54.5438 335.195 56.2572 334.838 58.5775C334.66 59.5413 334.66 60.5407 334.696 61.5045C334.696 62.2542 334.731 63.0038 334.803 63.7534V64.6815C334.981 66.7519 335.088 68.8936 335.088 71.0354C335.088 71.8564 335.088 72.6774 335.053 73.4984C334.767 79.4954 333.196 85.2067 327.341 88.5265C323.236 90.8467 318.559 91.5606 313.918 91.3822C313.132 91.3822 312.383 91.3108 311.633 91.2394C310.776 91.168 309.919 91.0609 309.062 90.9538C307.92 90.811 306.778 90.6682 305.635 90.4898C303.315 90.1328 300.566 89.99 298.459 88.8834C295.924 87.5627 293.104 89.6331 295.675 90.9895L295.639 91.0609Z" fill="#ABC5E1"/>
<path d="M314.525 38.5516C314.525 38.9799 314.632 39.3726 315.382 40.3721C315.81 41.1574 316.239 41.9427 316.703 42.6923C316.845 42.8708 317.024 43.0136 317.274 43.085C317.452 43.192 317.667 43.2634 317.917 43.2634C318.202 43.2634 318.488 43.2277 318.738 43.085C318.952 43.0136 319.13 42.8708 319.273 42.6923C319.38 42.5852 319.487 42.4781 319.523 42.2996C319.63 42.1212 319.702 41.907 319.702 41.6571V41.2288C319.594 40.8718 319.523 40.5148 319.345 40.1936C319.237 39.908 319.095 39.6581 318.845 39.444C318.738 39.2298 318.631 38.9799 318.488 38.4445C318.452 38.3017 318.381 38.1232 318.274 37.8376C318.202 37.7306 318.095 37.5164 317.988 37.3736C317.988 37.3736 317.595 37.0523 317.595 37.0166C317.417 36.9452 317.274 36.8381 316.631 36.6597C316.453 36.6597 316.31 36.6597 316.131 36.6597C315.846 36.6954 315.453 36.9095 315.239 37.088C315.132 37.2308 315.025 37.3379 314.775 37.7305C314.632 38.0161 314.596 38.0875 314.561 38.4802L314.525 38.5516Z" fill="#ABC5E1"/>
<path d="M305.743 119.475C307.563 121.795 310.562 122.58 313.383 122.937C321.879 123.972 330.091 126.685 338.552 125.9C339.98 124.365 335.981 122.402 337.231 120.653C328.448 121.295 324.45 121.331 315.632 120.688C313.668 120.546 309.705 119.653 308.492 117.726C307.706 116.512 307.456 112.907 307.599 111.55C307.778 109.837 308.17 107.516 308.349 105.839C308.777 102.091 309.991 98.8423 310.419 95.0942C310.598 93.595 310.812 92.7383 310.991 91.2747C310.134 91.2033 309.92 91.1676 309.063 91.0605C308.599 92.5241 308.135 93.9519 307.706 95.4512C307.456 96.3436 307.206 97.236 306.992 98.1284C306.135 101.876 305.421 105.696 304.886 109.48C304.422 112.728 303.529 116.655 305.743 119.475Z" fill="#ABC5E1"/>
<path d="M230.556 71.0708C232.413 74.7475 235.661 79.7093 240.124 80.1019C240.517 80.1019 240.838 80.0306 241.088 79.8521C243.266 81.0657 245.479 82.2437 247.657 83.4931C251.298 85.5634 254.976 87.5624 258.653 89.5971C264.222 92.7027 270.256 95.6654 276.825 94.9872C282.001 94.4518 287.106 91.489 288.963 86.4558C290.748 81.6726 289.213 76.4609 287.856 71.7491C286.714 67.8939 285.107 63.2534 286.821 59.3982C288.213 60.2906 289.605 61.183 290.998 62.1111C292.39 63.0749 294.318 61.7542 293.997 60.1478C292.747 53.6155 288.856 47.8327 283.358 44.156C285.928 41.4074 287.249 37.5522 286.357 33.6971C285.571 30.2703 283.108 27.486 280.002 26.0224C283.893 22.9526 287.963 20.0255 292.176 17.4197C296.424 14.7782 302.708 11.2799 307.742 13.9215C307.92 14.0285 308.277 14.0642 308.277 14.0642C308.206 14.4569 308.456 14.6711 308.348 15.0994C307.92 16.3488 309.741 16.8842 310.241 15.742C311.99 11.7797 310.526 6.96072 307.349 4.17642C305.635 2.64149 303.493 1.89188 301.173 1.82048C297.888 1.74909 294.675 2.96276 291.426 2.10605C286.642 0.892387 282.608 -1.49925 277.788 1.17796C275.397 2.49871 273.362 4.17642 270.72 5.10452C268.221 5.99692 265.65 6.71084 263.187 7.74603C253.833 11.744 245.729 18.5262 239.91 26.8434C236.697 31.4125 234.055 36.5884 231.877 41.7287C229.699 46.8689 228.021 52.3304 227.807 57.9347C227.664 62.3253 228.557 67.0372 230.521 70.9994L230.556 71.0708Z" fill="#ABC5E1"/>
<path d="M242.374 46.4761C243.445 49.3318 244.873 52.0447 246.515 54.6148C247.907 56.828 249.621 60.0763 251.941 61.4685C255.547 63.6102 259.26 58.934 260.617 54.7933C262.723 56.3639 265.079 52.83 262.937 51.0809C256.725 46.0478 252.941 38.1232 252.977 30.0915C252.977 25.5938 254.012 21.0247 255.726 16.8839C257.189 13.4214 259.51 10.4586 263.116 9.06648C264.187 8.67382 263.616 7.21028 262.652 7.17458C262.509 6.85332 262.259 6.60345 261.831 6.63914C255.654 6.85332 250.228 10.2801 246.479 15.0277C239.375 24.1302 238.339 35.803 242.374 46.4404V46.4761Z" fill="#EBD6FB"/>
<path d="M244.801 79.6019C247.158 90.3821 256.119 99.1276 267.329 100.056C272.612 100.484 278.146 99.2704 282.644 96.4504C287.785 93.2378 291.105 88.3474 293.39 82.8145C294.533 80.0659 295.925 76.8533 295.639 73.8191C295.318 70.8206 293.819 67.6794 292.676 64.8951C290.391 59.3265 286.964 54.2577 281.752 51.1164C276.897 48.1893 270.756 46.6544 265.151 47.8681C264.009 48.1179 262.902 48.4749 261.831 48.9032C261.438 48.8676 260.974 48.9033 260.51 49.1174C249.3 54.4718 242.124 67.1796 244.837 79.5662L244.801 79.6019Z" fill="#EBD6FB"/>
<path d="M329.233 65.2524C329.84 65.074 330.268 65.3238 330.733 65.6808C331.018 65.9307 331.339 66.1448 331.625 66.359C332.232 66.8231 332.875 67.2514 333.517 67.6798C334.767 68.5008 336.123 69.2504 337.444 69.9643C337.944 70.2499 338.051 70.9281 337.801 71.3922C337.551 71.8562 336.98 72.1775 336.445 71.9633C334.91 71.3922 333.481 70.6069 332.125 69.7502C331.482 69.3575 330.84 68.9291 330.197 68.4651C329.911 68.2509 329.59 68.001 329.304 67.7869C329.09 67.6441 328.84 67.4656 328.698 67.2871C328.448 67.0016 328.376 66.6089 328.412 66.2162C328.412 65.7165 328.805 65.3595 329.269 65.2524H329.233Z" fill="#ABC5E1"/>
<path d="M39.8779 583.023H513.736V657.985H494.457C494.457 657.985 452.687 599.551 269.756 599.551C74.6506 599.551 61.8697 657.985 61.8697 657.985H39.8779V583.023Z" fill="#FCD8CD"/>
<path d="M271.434 107.231C263.33 103.519 246.336 95.2013 230.449 99.5562C199.211 108.123 161.225 129.041 135.985 168.949C99.4268 226.741 120.847 327.404 165.616 358.174H420.128C420.128 358.174 470.466 253.763 429.446 187.583C388.426 121.402 325.842 113.478 310.99 119.332C283.465 130.183 285.5 113.621 271.434 107.195V107.231Z" fill="#687FE5"/>
<path d="M66.7964 385.233C66.7964 385.233 257.725 362.958 350.226 323.728C442.727 284.462 488.674 375.916 445.547 417.859C402.42 459.802 135.771 474.723 97.5706 470.047L75.1861 501.745L66.7964 385.233Z" fill="#EBD6FB"/>
<path d="M66.7964 385.232L75.1861 501.744L97.5706 470.082V381.234L66.7964 385.232Z" fill="white"/>
<path d="M66.7964 385.232L69.2597 414.574L71.616 443.702C72.4014 453.375 73.2226 463.085 73.9009 472.723L76.0786 501.708L74.4364 501.244L85.5751 485.359L96.7851 469.546L96.6066 470.081L96.7494 425.675L97.1064 381.269L97.6063 381.698L66.7964 385.303V385.232ZM66.7964 385.232L97.4992 380.77L97.999 380.698V381.198L98.356 425.604L98.4988 470.01V470.295L98.3203 470.545L87.1816 486.43L75.9715 502.243L74.4721 504.314L74.2936 501.779L72.2586 472.509C71.5803 462.728 70.9734 453.018 70.3665 443.273L68.5457 414.145L66.7964 385.196V385.232Z" fill="#264EA0"/>
<path d="M74.4721 504.992C74.4721 504.992 74.365 504.992 74.2936 504.992C74.0437 504.92 73.8652 504.706 73.8295 504.421L71.616 472.58C71.1519 465.798 70.7235 459.015 70.2951 452.269L67.9032 414.217L66.1538 385.303C66.1538 384.982 66.368 384.696 66.6893 384.66L97.8919 380.127C98.1061 380.127 98.2489 380.127 98.3917 380.27C98.5345 380.377 98.6059 380.555 98.6059 380.734L98.9629 425.639L99.1057 470.331C99.1057 470.331 99.07 470.581 98.9986 470.688L87.6814 486.787L74.9719 504.706C74.9719 504.706 74.6506 504.956 74.4721 504.956V504.992ZM67.4747 385.767L72.9727 452.412C73.5082 459.158 74.0794 465.94 74.5792 472.687L76.4357 497.389L85.111 485.038L96.0711 469.617L96.214 425.675L96.571 382.447L67.5461 385.838L67.4747 385.767Z" fill="#ABC5E1"/>
<path d="M158.154 434.635C149.765 396.297 160.939 342.36 236.482 341.432C311.99 340.504 325.984 529.729 458.363 585.665L392.174 702.177L390.317 663.018C390.317 663.018 270.826 594.053 228.949 541.83C187.072 489.642 164.688 464.477 158.19 434.635H158.154Z" fill="#EBD6FB"/>
<path d="M390.318 663.019L436.015 574.35L458.364 585.665L392.174 702.177L390.318 663.019Z" fill="white"/>
<path d="M390.318 663.019L401.421 640.745C405.134 633.32 408.847 625.895 412.631 618.47L423.912 596.196C427.661 588.771 431.445 581.346 435.265 573.921L435.658 573.172L436.408 573.564L458.792 584.844L459.649 585.273L459.185 586.094C453.687 595.803 448.225 605.548 442.655 615.258L426.054 644.35C420.521 654.059 414.987 663.768 409.382 673.406L392.638 702.427L391.782 703.927L391.71 702.213L390.996 682.58L390.318 663.019ZM390.318 663.019L391.532 682.616L392.674 702.142L391.746 701.928L408.097 672.693C413.523 662.947 419.021 653.202 424.519 643.493L441.013 614.329C446.475 604.584 452.08 594.911 457.578 585.201L457.971 586.451L435.658 575.099L436.8 574.742C432.98 582.096 429.16 589.485 425.305 596.803L413.738 618.863C409.882 626.216 405.991 633.57 402.099 640.923L390.354 663.019H390.318Z" fill="#264EA0"/>
<path d="M391.746 704.533C391.746 704.533 391.639 704.533 391.603 704.533C391.317 704.461 391.139 704.247 391.139 703.961L389.711 663.089C389.711 663.089 389.711 662.875 389.782 662.804L400.885 640.53C404.598 633.105 408.311 625.68 412.095 618.255L423.377 595.981C427.125 588.556 430.91 581.131 434.73 573.706L435.122 572.957C435.265 572.671 435.622 572.528 435.944 572.671L459.935 584.737C459.935 584.737 460.184 584.951 460.256 585.094C460.327 585.236 460.256 585.415 460.22 585.593L459.756 586.414C457.864 589.734 456.007 593.054 454.115 596.409C450.51 602.799 446.904 609.224 443.227 615.578L423.234 650.596C418.843 658.306 414.416 666.052 409.953 673.727L392.353 704.211C392.246 704.39 392.031 704.533 391.817 704.533H391.746ZM390.925 663.161L393.031 698.321L407.526 672.37C411.667 664.91 415.88 657.485 420.092 650.06L440.442 614.007C444.083 607.546 447.761 601.121 451.438 594.696C453.044 591.911 454.651 589.091 456.222 586.307L436.622 576.348C433.016 583.273 429.446 590.198 425.805 597.123L414.237 619.183C410.382 626.537 406.49 633.89 402.599 641.243L390.925 663.161Z" fill="#ABC5E1"/>
<path d="M343.764 191.545C343.764 191.545 379.822 209.393 374.681 289.209L359.472 286.604C359.472 286.604 369.504 225.242 343.764 191.545Z" fill="#FFC8B7"/>
<path d="M214.92 196.756C214.92 196.756 180.754 217.996 193.607 296.955L208.494 292.886C208.494 292.886 192.536 232.774 214.92 196.756Z" fill="#FFC8B7"/>
<path d="M176.934 228.276C176.934 231.061 187.858 352.82 187.858 352.82L391.281 351.678C391.281 351.678 401.528 233.309 391.281 226.777C381.035 220.245 176.969 228.276 176.969 228.276H176.934Z" fill="white"/>
<path d="M275.514 276.13C274.839 276.507 274.51 276.804 273.757 277.95C273.004 279.095 273.042 279.61 273.042 279.61L273.272 282.699L273.392 285.415L272.553 286.485C271.296 288.132 270.959 290.146 271.397 293.492C272.277 300.238 276.433 304.86 282.709 306.001C284.546 306.355 291.624 305.911 293.85 305.31C298.489 304.066 302.364 299.827 303.425 294.817C303.708 293.542 303.613 291.533 302.89 281.806L302.035 270.29L301.276 269.175C299.364 266.374 295.112 266.636 293.419 269.677C292.798 270.786 292.769 271.115 292.905 274.047L293.031 277.198L291.526 277.31C290.663 277.347 289.755 277.496 289.468 277.627C289.049 277.821 288.793 277.65 288.193 276.85C287.137 275.375 285.407 274.734 283.516 275.12C283.516 275.12 283.126 275.124 282.724 275.383C282.485 275.537 282.265 275.733 282.077 275.949C281.916 276.134 281.771 276.38 281.719 276.588C281.667 276.796 281.602 277.29 281.602 277.29C280.303 275.263 277.723 274.93 275.514 276.13ZM278.973 278.652L279.712 279.142L279.903 281.716L280.032 283.45L278.016 283.6L275.999 283.75L275.899 282.395C275.728 280.099 275.806 280.059 276.08 279.384C276.684 278.413 278.188 278.179 278.973 278.652ZM298.635 270.379L299.403 270.894L300.192 282.606L300.979 294.29L300.227 296.172C299.294 298.53 297.122 300.952 295.01 302.008C293.601 302.685 293.121 302.775 288.254 303.137L283.011 303.527L281.145 302.794C276.581 301.035 274.037 297.001 273.922 291.451C273.889 289.192 274.183 288.408 275.554 287.216C276.188 286.651 276.695 286.559 280.883 286.166C285.26 285.759 285.53 285.766 286.27 286.256C287.323 286.968 287.426 288.35 286.516 289.207C285.934 289.741 285.456 289.858 282.929 290.046C280.106 290.256 280 290.291 279.618 290.973C279.261 291.627 279.269 291.735 279.719 292.328C280.197 292.947 280.307 292.966 283.399 292.736C286.168 292.53 286.7 292.409 287.681 291.791L288.791 291.082L290.048 291.615C290.746 291.917 291.734 292.116 292.272 292.076C293.75 291.967 295.372 290.865 296.028 289.509L296.614 288.294L296.006 280.111C295.508 273.418 295.468 271.786 295.742 271.112C296.27 269.847 297.41 269.544 298.635 270.379ZM285.695 278.152C286.378 278.619 286.446 278.805 286.607 280.973C286.776 283.249 286.778 283.276 286.175 283.157C285.819 283.102 284.899 283.088 284.146 283.144L282.721 283.25L282.59 281.489C282.457 279.701 282.81 278.258 283.462 277.937C284.166 277.585 284.955 277.662 285.695 278.152ZM292.618 280.362C293.357 280.852 293.361 280.907 293.627 284.483C293.893 288.06 293.897 288.114 293.238 288.708C292.15 289.715 290.978 289.584 290.267 288.384C289.624 287.369 289.241 282.221 289.725 281.095C290.253 279.83 291.393 279.527 292.618 280.362Z" fill="#687FE5"/>
</g>
</g>
<defs>
<clipPath id="clip0_642_13">
<rect width="571" height="705" fill="white"/>
</clipPath>
</defs>
</svg>
